GREETZ: UnDeaD - BadGirl2k9 - virusofsaten - foxyb - WICCYWOLF - lizzymwah1

VISIT http://www.seedboxworld.biz/ for all ur seedbox needs!

RELEASE NAME: Hole  In One Retail dvdrip  - 2010 X264 - SDTeam 
RELEASED BY: UnDeaD & BadGirl2k9
SIZE: 420 MB

LANGUAGE: English
IMDb: http://www.imdb.com/title/tt1263800/

PLOT: Eric, a highly-gifted golfer but radically-undisciplined 
college undergrad, finds his world drastically altered after 
losing a golf bet to a pair of sadistic plastic surgeons. Eric's 
bad-boy attitude lifestyle comes to a screeching halt as he loses 
his money, his girlfriend, his dignity and his golf swing. Eric 
and his best friend Tyler decide to take on the doctors, in a 
final golf match of "Best-Ball" to get his life back and become 
the man he should have been all along.

COVER IMAGE: http://bayimg.com/iAPjDaAcC
SCREENS:  
http://i658.photobucket.com/albums/uu309/BadGirl2k9/screens/vlcsnap-2010-09-19-17h49m55s125.png 
http://i658.photobucket.com/albums/uu309/BadGirl2k9/screens/vlcsnap-2010-09-19-17h50m07s0.png 
http://i658.photobucket.com/albums/uu309/BadGirl2k9/screens/vlcsnap-2010-09-19-17h50m25s0.png

General
Format                           : MPEG-4
Format profile                   : Base Media
Codec ID                         : isom
File size                        : 420 MiB
Duration                         : 1h 35mn
Overall bit rate                 : 612 Kbps
Encoded date                     : UTC 2010-09-18 16:20:29
Tagged date                      : UTC 2010-09-18 16:20:29

Video
ID                               : 1
Format                           : AVC
Format/Info                      : Advanced Video Codec
Format profile                   : High@L2.2
Format settings, CABAC           : Yes
Format settings, ReFrames        : 4 frames
Codec ID                         : avc1
Codec ID/Info                    : Advanced Video Coding
Duration                         : 1h 35mn
Bit rate mode                    : Variable
Bit rate                         : 500 Kbps
Maximum bit rate                 : 1 973 Kbps
Width                            : 608 pixels
Height                           : 352 pixels
Display aspect ratio             : 16:9
Frame rate mode                  : Constant
Frame rate                       : 20.000 fps
Resolution                       : 8 bits
Colorimetry                      : 4:2:0
Scan type                        : Progressive
Bits/(Pixel*Frame)               : 0.117
Stream size                      : 341 MiB (81%)
Title                            : Imported with GPAC 0.4.6-DEV (internal rev. 5)
Writing library                  : x264 core 102 r1666 d058f37

Audio
ID                               : 2
Format                           : MPEG Audio
Format version                   : Version 1
Format profile                   : Layer 3
Format_Settings_Mode             : Joint stereo
Format_Settings_ModeExtension    : MS Stereo
Codec ID                         : 6B
Duration                         : 1h 35mn
Bit rate mode                    : Variable
Bit rate                         : 111 Kbps
Nominal bit rate                 : 128 Kbps
Maximum bit rate                 : 151 Kbps
Channel(s)                       : 2 channels
Sampling rate                    : 48.0 KHz
Stream size                      : 76.3 MiB (18%)
Title                            : Imported with GPAC 0.4.6-DEV (internal rev. 5)
Writing library                  : LAME3.98r

GROUP NOTE: Big thanks to seedboxworld.biz for the seedbox!
